<svg id="Layer_1" data-name="Layer 1" xmlns="http://www.w3.org/2000/svg" viewBox="0 0 1500 1000"><defs><style>.cls-1{fill:#fff;}</style></defs><title>Taliban</title><polygon class="cls-1" points="0 0 0 500 0 1000 1500 1000 1500 500 1500 0 0 0"/><path d="M253.64,304.4c-3,.82-7.61,11.81-5.91,15.74,1.43,3.28,4.44,4.7,8,5.46-2.17,7.88-20.44,14.55-24,21.26-.26,5,.05,14.68,8.81,16.12,18.93,3.11,35.93-14.56,42.18-35.21-4.77,5.13-17.27,17.83-24.29,22.45-8.6,5.49-16.81,4.75-22,2.23,1.24-2,6.77-5.45,14.32-10.65s8.29-6.59,10.46-14.45c4.38,1.65,10.61.8,11.86-.35a13.49,13.49,0,0,0,2.81-11c-1.33-2.81-9.37-12.58-13.32-13.44,0-3.41-9.35-7.43-11.15-4.18-.68,1.32,2.78,3.63,2.33,6.06Zm5.73,5.89c1,2.26.84,4.78-.44,6.11C247.7,316.9,252.76,308.63,259.37,310.29Zm4.25,3.18c2.64.53,5.45,3.77,7.51,5.68-4.43.6-5.88.41-8.22-.3a11.33,11.33,0,0,1,.71-5.38Z"/><path d="M781.68,507.15c-5.53,1.73-6.81,2.47-14.63,5.69a48.44,48.44,0,0,0-7.32-10.13C761.68,500.36,779.84,501.55,781.68,507.15Zm-20,87.46c-21.08,9.54-35.66,22.33-34.79,46.28-24.27-9.53-30.71-35.12-33.86-48.11C688.13,572.63,675.9,492,649.59,476.83l-.63,32c9.11,15.18,24.8,58.39,30.08,83.36-9.3,23-61.21,64.33-85.07,63-17-1-14.93-22.75-3.49-63.4-17.64,18.08-27.2,77.74-1.63,87.94,16.17,5.6,39-9.27,60.69-26.43,32-25.34,28.79-36.6,32.29-49.91,6.61,29.16,26.3,69.14,85.4,70.32l.46-22.32c-10.66-1-29.77-17-30-22,6.52-8.89,41.05-27.39,92-38.7,6.93-10.72,11.77-16.48,14.43-22.4-12.91,2.43-59.42,4.16-71.56,4.52-34.67-.05-35.5.55-56.89-.13,1.38-5.9,34.92-33,44.21-36.57,1.7,2.46,2.31,8,3.48,12.72,10.52-6.6,8.72-16.78,8.93-17.61s20.36-7.28,27.63-10.64l9.35-19.84c-10.65-13.09-33-21.92-41.77-19.23-28,8.57-17.37,26.79-13.56,38.12-27.55,24.61-59.88,33-60.83,77.7,11.55-2.94,52.35-2.16,68.58-2.62Z"/><path d="M539.07,473.52h-3.85c-11.49,18-15.14,33.41-32,37.39-12.75,3-26.39-.68-21.07-33-15.26-3.67-55.12,19.92-66.25,22.58-3.26-18.14-13.5-28.35-24.07-34.63-34.24-20.32-52.83,63.33-21.81,64.22,11.81.34,15.66.22,33.92,0,2.57,4.5,7.9,15.13,6.42,23.4-16.55,23.81-62.25,59.91-92,56.31-34.34-4.16-53.12-27.67-37.65-84.59h-1.67c-6.72,17.6-36.83,93.42,26,111,26.65,5,72.27-5.78,108.52-56.72,8.3-11.67,8.14-38.63,7.37-52.76,24.47-7.65,34.34-18.64,46.16-22.78,2.61,30.8,20.66,35.42,30.24,35.07,20.31-.72,30.62-19.64,34.77-28.74,2.8,11.11,12.55,19.08,25.26,16.77,26.22-4.75,34.72-48.9,19.25-67.41l-11,22.23c13,18.06,2.93,19.24-2.8,20.6-17.78,4.23-22.48-14.94-23.75-29ZM393.92,503.46a160.72,160.72,0,0,1-26.53.16c-1.61-3.29,1.44-11.55,6.68-13.44,6.52-2.35,14.54,3.3,19.85,13.28Z"/><path d="M614.29,306.4c16.13,9.72,34.3,36.4,14.06,76.34h-2.42c1.41-12.6,10.88-36.38-11.72-55.56Z"/><path d="M641,514.07l-.28,6.89L626.3,515.2c9.29,20,19.52,35.57,15.46,60.09-4.42,26.67-85.94,84.92-114.84,92.59-23.25,6.16-54,6.57-87,7,67.84-16.15,152.34-65.81,196.41-106.06-7.06-9-20.67-27.88-23.08-45.09-5.69-10.66-10.34-18.54-10.34-18.54l4.1-25.1Z"/><path d="M1152.41,633.71c.38,6.8,14.44,9.06,25.41-1.54a44.34,44.34,0,0,1,5.13-.51c-1.87,9.25-13.83,15.66-17.41,17.91-5.63,3.52-13.53,9.78-21.4,11.87l.1-6a70.27,70.27,0,0,0,6.81-5.35c-9.32-4.87-9.52-10.66-7.49-14.7,5.57-11.1,17.66-23.42,27.6-15.7,1.23,6-3.07,17-9.12,8.57-4.29.32-8.87,2.64-9.63,5.4Z"/><path d="M782.83,322.3c-2.68-2.3-14.25-.61-18.24-1.61.13-5.53,1.57-11.62,8-15.55,9.42-2.7,27.24,2.91,29.58,6.07S795.6,324.54,791.54,327c-14.08,8.41-23,9.57-27.48,10.24a39.36,39.36,0,0,1-5.93-2.4C769.72,331.88,782.55,325.14,782.83,322.3Z"/><path d="M826.42,628.65c-6.57-.16-13.17,21.27-33.42,39.69-22.22,17.89-33.28,21.78-51.39,29.81,31.59-1.75,62.11-19.36,73.76-48.73,2.61,2.22,10.13,6.51,15.1,4.61C840.57,641.16,829,628.71,826.42,628.65Zm2.46,15.64c-.67.42-6-1.53-7.87-3.29a3.48,3.48,0,0,1,4.11-2.44c3.89,2.68,5.21,4.47,3.76,5.73Z"/><path d="M342.37,517c-15.54-6.1-19.75,27.41-24.22,44.75-9-25.93-19.3-27.15-24.46-24.9-19.64,8.75,2.36,40.1,12.73,21.37,3.31,3.95,5.57,11.5,14,27.37,2.89-21.33,5.89-56.48,21.79-42.1,10.26-10.9,4.09-24.73.12-26.49Z"/><path d="M295.8,446c-3.39-.27-7.78,5.78-10,13.06-2.46,8.06-3.23,12.76,11.47,21.21-10.68,25-51.61,52-61.52,58.68,34.71-3,63.67-39.32,66.11-55,4.12,3.6,7.61,3.9,6.14,18,1.72-2.66,6.79-7.76,5.06-17.5-3.15-10.53-6.91-10.53-8.7-13.39,1.51-9.75-1.11-24.44-8.56-25Zm2.68,20.8c-1-.73-6.52-5.13-7.93-7.55,1-2.59,4.5-2.27,6.3-1S298.6,466.55,298.48,466.75Z"/><path d="M682.44,327.79c1.92.85-2.54,18.39,4.09,18,6.15-.91,2.44-11.21,2-16.42a12.87,12.87,0,0,1,3.27-4.7,34,34,0,0,1,3.24,6.39c0,2.23-1.57,10.7,3.77,11.44,5.31.42.65-10.57.35-14.29a15.81,15.81,0,0,1,3.23-5.95c10.86,30.06-2.36,34.81-10.3,26.29-4,7.23-6.54,6.78-8.46,6.73-7.66-.2-5.5-15.13-6-15.5a10.69,10.69,0,0,0-3.4,3l-.24-4.27Z"/><path d="M400.68,305.27l-8.79,23.23L399,352.83l35.15,229.63c-9.8,13.28-62.34,75.82-119.39,71.45C224.51,647,266.47,543.67,265.4,534.1l-1.07,0c-49.6,110.35,9.88,147,47.78,148.21,50.32,1.62,96.08-30.42,124.26-72.58C454.2,579,437,500,432,468.47c-4.6-33.61-11.75-74.85-17.93-112.55a65,65,0,0,0,10.55,5.82v-7.35Z"/><path d="M847.27,363.13,837,353.54c4.12,28.58,13.47,91.08,23.15,151.16,1.58,19.42,24.73,111.43.92,131.2,2.08-36.91-21.51-153.59-28.4-207.2-1.16-9.62-11.36-80.84-17.38-101.06l7.23-25.45,24.78,51.16Z"/><path d="M805.91,387.63l-16.2-1.46c31.26,38.08,50.11,61.39,96.43,111.45,45.12,48.77,54.54,58.67,47,100.11-4.14-37.28-28.47-49.31-72.86-99.42C854.25,491,798.5,432.36,758.7,371.39l3.67-26,43.41,37.06Z"/><path d="M1015.84,366.3l-10.3-9.58c4.12,28.57,13.74,89.87,22.57,150.08,10.83,73.86,29,142.86,10.68,179.55-6.21-57-19.56-131-26.89-184.59-1.15-9.62-21.82-149-28.07-170.95l7.23-25.44,24.78,51.16Z"/><path d="M1174.39,366.36l-10.3-9.58c4.12,28.57,12.34,90.82,22.65,151.31,9.92,58.31,9,79.43.07,107.28-7-49.75-19-126.7-27.47-183.6-1.16-9.62-10.63-77.93-16.88-99.91l6.81-27.18,25.12,51.9Z"/><path d="M938.64,365.38l-10-9.13c6.94,47.26,13.42,89.94,23.23,150,4.88,29.86,14.85,93-20.32,130.72-31,33.26-70.69,36.62-92.75,37.17,36.81-21.17,103.33-53,107.78-95.19-2.45-29.71-15.13-96.24-22.69-148.69-1.15-9.62-10.87-75.24-16.79-98.71l7-26.48L938.64,357Z"/><path d="M1075.16,347.76l-15.27-1.58c44,53,89.75,100.85,135.46,150.13,45.69,47.15,57.4,64.47,48.5,101.07,2.19-34-70.86-91.57-110.89-139.06-43.24-49.7-63.93-68.05-104.55-126.57l3-25.54c13.37,8,43.87,36.13,43.87,36.13Z"/><path d="M1075.29,483.74c16.13,9.72,34.3,36.41,14.06,76.34h-2.42c1.41-12.6,10.88-36.39-11.73-55.57Z"/><path d="M1199.16,391.59c16.13,9.72,34.3,36.41,14.06,76.34h-2.42c1.41-12.6,10.88-36.38-11.73-55.56Z"/><path d="M330.42,310.4c16.13,9.72,34.3,36.41,14.06,76.34h-2.42c1.41-12.6,10.88-36.38-11.73-55.56Z"/><path d="M879.27,322.58C876.6,320.27,865,322,861,321c.12-5.53,1.56-11.61,8-15.55,9.42-2.7,27.24,2.92,29.57,6.08s-6.57,13.32-10.64,15.75c-14.07,8.42-23,9.58-27.47,10.25a40.11,40.11,0,0,1-5.94-2.4c11.6-2.93,24.42-9.68,24.7-12.51Z"/><path d="M961.86,322.08c-2.67-2.3-14.25-.61-18.23-1.61.12-5.53,1.56-11.62,8-15.56,9.41-2.69,27.24,2.92,29.57,6.08s-6.58,13.33-10.64,15.76c-14.07,8.41-23,9.57-27.47,10.24a40.11,40.11,0,0,1-5.94-2.4C948.76,331.66,961.58,324.91,961.86,322.08Z"/><path d="M1192.71,322.58c-2.68-2.31-14.25-.61-18.24-1.62.13-5.53,1.57-11.61,8-15.55,9.42-2.7,27.24,2.92,29.58,6.08s-6.58,13.32-10.64,15.75c-14.08,8.42-23,9.58-27.48,10.25a40.44,40.44,0,0,1-5.93-2.4C1179.6,332.16,1192.43,325.41,1192.71,322.58Z"/><path d="M258.06,489.36c-2.68-2.3-14.25-.61-18.24-1.62.13-5.53,1.57-11.61,8-15.55,9.41-2.7,27.23,2.92,29.57,6.08s-6.58,13.32-10.64,15.75c-14.08,8.42-23,9.58-27.48,10.25a40.44,40.44,0,0,1-5.93-2.4c11.6-2.93,24.42-9.68,24.7-12.51Z"/><path d="M428.68,300.71c6.25,9.64,17,23.27,23,34,.09,2.81-.24,4.59-.11,7.19-10.6-6.1-2.89-1.73-9.41-5.3,7.68,15.15,23.42,49.23,21.54,70.56-2.47,28.16-32.75,49.15-62.47,36.15-15.76-6.89-21.86-31.19-21.86-31.19s-3.35,12.55-6.78,20.48c-8.37,19.4-45.69,33-64.6,11.91-26.37-29.46-5.84-67.59-12-82.41-21.94,42.27-9.9,90.41-38.28,90.69-15.47-2.14-34.91-45.71-19.71-87-1.36,29.38,3.12,62.64,20.09,63.38,4.16.18,6.54-3.56,11.15-13.89,9.93-25.2,11.76-71.52,42.43-86.09,2.17,13.72-.09,33.66-3.39,51.82-4.47,24.54,7.26,54.88,38,45.86,5.68-1.67,14.08-5.35,25.73-26.28,4.18-15.63-6.55-48.2-9.81-69.9,1.92-4.85,5.67-16.25,8.25-20.31,2.42,2.33,9.47,15.77,9.69,18.28,4.16,23.17,5.05,75.36,26.71,90.17,11.47,7.84,40.43,1.76,48.91-10.94-6.71-10.38-26.13-48.28-28.09-73.1-.76-4.59-3.37-10.33-4-12.36Z"/><path d="M1249.72,366l-10-9.13c6.94,47.27,13.42,89.94,23.23,150,4.88,29.86,15.93,95.33-20.73,131.63-29,28.68-58.41,33.87-94.08,36,34.25-18.52,105.17-53.29,109.52-94.9-2.45-29.71-15.13-96.23-22.69-148.68-1.15-9.62-10.87-75.25-16.79-98.71l7-26.48,24.54,51.94Z"/><path d="M1123.69,365.51l-10-9.12c6.94,47.26,12.84,88.18,22.65,148.24,4.87,29.86,13.65,74,4.31,98-8.71,22.34-15.22,41.25-44.87,43.07-45.44,2.79-37.15-61-64-60.39-42.65.91-56.2,115.63-81,117.53-32.47,1.86-54.84-67.44-34.26-110.28-5.19,45,9.09,81.94,28.68,82.47,27.11.73,38.6-119.37,93.89-117.65,26.29.81,17.37,60.35,58.82,61.62,18,.55,32.26-12.05,33.9-23.93-2.45-29.71-15.34-107.53-22.9-160-1.16-9.63-10.76-79.93-16.68-103.39l7-26.48,24.54,51.95Z"/><path d="M563.44,306.44c-3.25-.17-8.4,9.18-7.83,12.79.61,3.81,1.45,4.17,4.43,5.26-22.73,22.24-32,20.47-55,28,42,3.55,53.88-18.14,59.52-25.95,3.62,2,11.25,2.76,12.48,1.91a12,12,0,0,0,3.82-9.35c-.81-2.62-6.13-12-9.47-13.23.42-3-7.25-7.62-9.21-5-.77,1.07,2,3.5,1.28,5.56Zm4.27,5.85c.64,2.1.15,4.27-1.13,5.27C556.72,316.63,562.15,310,567.71,312.29Zm3.32,3.3c2.24.78,3.71,3.71,5.27,5.63-3.94,0-4.59-.12-6.55-1a10,10,0,0,1,1.28-4.6Z"/><path d="M771.4,414.48c-2.77-.22-6.36,4.73-8.18,10.68-2,6.6-2.64,10.44,9.38,17.36,2.18,9.51-32.68,33.83-44.35,41.29,32.59-6.16,43.42-23.62,48.11-38.32,3.37,2.95,6.23,3.19,5,14.73,1.41-2.17,5.55-6.35,4.14-14.32-2.58-8.61-5.65-8.61-7.11-10.95,1.23-8-.92-20-7-20.47Zm2.19,17c-.8-.6-5.33-4.21-6.49-6.18.86-2.12,3.69-1.86,5.16-.78S773.7,431.33,773.59,431.5Z"/><path d="M693.58,493.11c1.73,1.74-3,21.66,4.82,21.19,7.25-1.08,2.88-13.21,2.35-19.35a15.22,15.22,0,0,1,3.85-5.54c1.64,2.36,2.29,4.08,3.82,7.53-.06,2.62-1.86,12.61,4.44,13.49,6.26.49.77-12.47.41-16.84a18.91,18.91,0,0,1,4.19-7.26C730.25,521.74,714.54,528,705.2,518c-4.71,8.51-7.72,8-10,7.92-9-.24-6.74-18.28-7.37-18.72-1.54.85-2.61,2.25-4.1,4.06L684,505Z"/><path d="M871,379c1.72,1.74-3,21.66,4.82,21.2,7.24-1.08,2.87-13.22,2.34-19.35a15.12,15.12,0,0,1,3.86-5.54c1.63,2.35,2.28,4.08,3.81,7.53-.06,2.62-1.85,12.6,4.44,13.48,6.26.49.77-12.46.42-16.84a18.81,18.81,0,0,1,4.18-7.26c12.79,35.41-2.92,41.72-12.26,31.68-4.71,8.52-7.72,8-10,7.93-9-.24-6.73-18.29-7.37-18.72-1.53.85-2.61,2.24-4.1,4.06l.22-6.32Z"/><path d="M500.39,361.4l-10.3-9.58c4.12,28.58,13.47,91.08,23.15,151.16,1.58,19.42,24.73,111.42.93,131.2,2.07-36.91-21.52-153.59-28.41-207.2-1.16-9.62-11.36-80.84-17.38-101.06l7.23-25.45,24.78,51.16Z"/><path d="M716,300.7c6.25,9.64,17,23.27,23,34,.09,2.81-.24,4.59-.11,7.19-10.6-6.1-2.89-1.73-9.41-5.3,7.68,15.15,23.42,49.23,21.54,70.56-2.47,28.16-32.76,49.15-62.47,36.15-15.76-6.89-21.86-31.19-21.86-31.19s-3.35,12.55-6.78,20.48c-8.37,19.4-45.69,33-64.6,11.91-26.37-29.46-5.84-67.59-12-82.41-21.94,42.27-9.91,90.41-38.28,90.69-15.47-2.14-34.83-41.88-19.42-91.31-1.37,29.39,2.83,67,19.8,67.71,4.16.18,6.53-3.56,11.15-13.89,9.93-25.2,11.76-71.52,42.43-86.09,2.16,13.72-.09,33.66-3.39,51.82-4.47,24.54,7.26,54.88,38,45.86,5.69-1.67,14.09-5.35,25.74-26.28,4.18-15.63-6.55-48.2-9.81-69.9,1.92-4.85,5.67-16.25,8.25-20.31,2.42,2.33,9.47,15.77,9.69,18.28,4.16,23.17,5.05,75.36,26.71,90.17,11.47,7.84,40.43,1.76,48.9-10.94-6.71-10.38-26.12-48.28-28.08-73.1-.77-4.59-3.37-10.33-4-12.36Z"/><path d="M818.12,558.5c-24-2.68,8-55.74,21.16-57-19.56,22.72-18.39,31-18.33,34,.08,3.48,4,8.48,9.15,3.14L832,539.9c-.42,1.77-4.61,19.63-13.87,18.6Z"/><path d="M895.51,483.06c-24-2.67,8-55.74,21.15-57-19.56,22.71-18.39,30.94-18.32,34,.08,3.49,4,8.49,9.15,3.14l1.88,1.25C909,466.23,904.76,484.09,895.51,483.06Z"/><path d="M962,456.87c-28.93-3.22,9.56-67.05,25.44-68.54-23.52,27.32-22.12,37.22-22,40.88.1,4.2,4.85,10.21,11,3.78l2.26,1.51C978.16,436.63,973.12,458.11,962,456.87Z"/><path d="M978.09,565.15c-28.93-3.21,9.56-67,25.44-68.54-23.52,27.32-22.12,37.22-22,40.89.1,4.19,4.85,10.2,11,3.78l2.26,1.5c-.5,2.13-5.54,23.61-16.67,22.37Z"/><path d="M1047.13,474.36c-28.94-3.21,9.56-67.05,25.44-68.54-23.52,27.32-22.12,37.22-22,40.89.09,4.19,4.85,10.2,11,3.78l2.27,1.5C1063.3,454.12,1058.26,475.6,1047.13,474.36Z"/><path d="M999.64,688.78c-28.93-3.22,9.57-67,25.44-68.55-23.52,27.33-22.12,37.23-22,40.89.09,4.2,4.84,10.21,11,3.78l2.26,1.51c-.5,2.12-5.54,23.61-16.67,22.37Z"/><path d="M557,597.22c-28.93-3.22,9.56-67.05,25.44-68.55-23.52,27.32-22.12,37.22-22,40.89.1,4.19,4.85,10.2,11,3.78l2.26,1.5C573.18,577,568.14,598.45,557,597.22Z"/><path d="M667.63,694.2c-24-2.68,8-55.74,21.16-57-19.56,22.72-18.39,30.95-18.33,34,.08,3.49,4,8.49,9.15,3.15l1.89,1.25C681.08,677.37,676.89,695.23,667.63,694.2Z"/><path d="M415,695.63c-24.05-2.67,7.95-55.74,21.15-57-19.55,22.71-18.39,30.94-18.32,34,.08,3.49,4,8.49,9.15,3.14l1.88,1.25c-.42,1.77-4.61,19.63-13.86,18.6Z"/><path d="M462.47,646.53c-32.89-3.65,10.87-76.22,28.92-77.92-26.74,31.06-25.14,42.32-25.05,46.48.1,4.77,5.51,11.61,12.51,4.3l2.57,1.71C480.85,623.52,475.12,647.94,462.47,646.53Z"/></svg>